Coordinates
version=1
nRows=6
nColumns=36
inDegrees=yes

Units are S.I. units (second, meters, Newtons, ...)
If the header above contains a line with 'inDegrees', this indicates whether rotational values are in degrees (yes) or radians (no).

endheader
time	pelvis_tilt	pelvis_list	pelvis_rotation	pelvis_tx	pelvis_ty	pelvis_tz	hip_flexion_r	hip_adduction_r	hip_rotation_r	knee_angle_r	knee_angle_r_beta	ankle_angle_r	subtalar_angle_r	mtp_angle_r	hip_flexion_l	hip_adduction_l	hip_rotation_l	knee_angle_l	knee_angle_l_beta	ankle_angle_l	subtalar_angle_l	mtp_angle_l	lumbar_extension	lumbar_bending	lumbar_rotation	arm_flex_r	arm_add_r	arm_rot_r	elbow_flex_r	pro_sup_r	arm_flex_l	arm_add_l	arm_rot_l	elbow_flex_l	pro_sup_l
      4.36000000	    -19.12994309	      0.62655636	      2.25328540	     -0.36833192	      0.77587630	     -0.63432877	     78.17676308	    -14.60532785	     -1.78024009	     81.41988671	      1.42104510	     24.78246249	     -6.78418576	     -7.49999987	     79.92675403	    -12.56674415	     -1.35899593	     78.07938865	      1.36274241	     20.28060889	     18.33807770	     -7.49999987	    -37.72934864	      3.05592278	      2.93801006	     13.45847759	    -22.84815233	     14.17028071	    141.76333931	    106.30639960	     20.83928177	    -17.41880591	     31.79367451	    130.72276453	    108.16813602
      4.37000000	    -19.61059831	      0.59866757	      2.65139889	     -0.36359060	      0.78446121	     -0.63441280	     77.22856744	    -14.78367553	     -2.09920513	     79.98576213	      1.39601490	     24.76885716	     -6.77745134	     -7.49999987	     79.02427811	    -12.05634491	     -1.46937593	     76.49032690	      1.33500805	     20.15787691	     18.36860322	     -7.49999987	    -36.14379359	      3.19861362	      2.80175782	     12.99886053	    -22.41257556	     14.77135601	    141.48303937	    106.46853710	     20.56696213	    -17.13887148	     32.04414929	    130.34710167	    108.13624573
      4.38000000	    -19.60877569	      0.55427175	      2.63299083	     -0.35853589	      0.79476766	     -0.63312766	     75.63504775	    -14.38512864	     -2.35235348	     78.28865803	      1.36639485	     24.56232158	     -7.00459206	     -7.49999987	     77.48490657	    -12.16869461	     -1.79713397	     74.81784192	      1.30581768	     19.84031236	     18.38324803	     -7.49999987	    -35.16208921	      3.09881479	      2.94905299	     12.82145647	    -21.97590334	     15.61643316	    140.92394947	    106.73338626	     20.35731390	    -16.96912635	     32.19912175	    129.90362613	    108.08508166
      4.39000000	    -19.39587208	      0.47256955	      2.49231179	     -0.35347947	      0.80577460	     -0.63157913	     73.76075526	    -13.80231132	     -2.62070412	     76.41069891	      1.33361828	     23.80671018	     -7.94248083	     -7.49999987	     75.66912521	    -12.42714334	     -2.12124670	     73.05773251	      1.27509798	     19.60225229	     18.54880476	     -7.49999987	    -34.52382103	      2.98781505	      3.00242245	     12.93748201	    -21.56273073	     16.59558593	    140.35619190	    107.51224679	     19.96831334	    -16.88205113	     32.02354735	    129.87857063	    108.04915748
      4.40000000	    -19.28128154	      0.46444062	      2.58736910	     -0.34836290	      0.81628340	     -0.63088203	     72.03874748	    -13.59919876	     -2.88060395	     74.63493114	      1.30262529	     23.55107330	     -8.04726143	     -7.49999987	     73.96349509	    -12.31742122	     -2.40397236	     71.25641623	      1.24365908	     19.26832280	     18.61870319	     -7.49999987	    -33.63145469	      2.94400374	      3.04913220	     12.59665058	    -21.18085174	     17.08068435	    139.90095685	    107.76356380	     19.61790087	    -16.64845937	     31.95728693	    129.56395163	    108.01553102
      4.41000000	    -19.28834337	      0.43809295	      2.81750686	     -0.34326694	      0.82641989	     -0.63061473	     70.43729757	    -13.54228913	     -3.18855816	     72.85078344	      1.27148603	     23.32898007	     -8.07299813	     -7.49999987	     72.41532414	    -12.01123707	     -2.57199502	     69.40110834	      1.21127785	     18.99112604	     18.67425513	     -7.49999987	    -32.57058684	      2.99798485	      3.00054168	     12.13805244	    -20.81785771	     17.44519742	    139.57972123	    107.87838248	     19.20318280	    -16.37914286	     31.90163101	    129.35537151	    107.99518075
